<?xml version="1.0" encoding="UTF-8" standalone="no"?>
<!-- Created with Inkscape (http://www.inkscape.org/) -->

<svg
   version="1.1"
   id="svg425"
   width="1840"
   height="1736"
   viewBox="0 0 1840 1736"
   sodipodi:docname="logo yofoot 1.svg"
   inkscape:version="1.2.2 (732a01da63, 2022-12-09)"
   xmlns:inkscape="http://www.inkscape.org/namespaces/inkscape"
   xmlns:sodipodi="http://sodipodi.sourceforge.net/DTD/sodipodi-0.dtd"
   xmlns="http://www.w3.org/2000/svg"
   xmlns:svg="http://www.w3.org/2000/svg">
  <defs
     id="defs429" />
  <sodipodi:namedview
     id="namedview427"
     pagecolor="#505050"
     bordercolor="#eeeeee"
     borderopacity="1"
     inkscape:showpageshadow="0"
     inkscape:pageopacity="0"
     inkscape:pagecheckerboard="0"
     inkscape:deskcolor="#505050"
     showgrid="false"
     inkscape:zoom="0.22695853"
     inkscape:cx="1277.7665"
     inkscape:cy="1057.4619"
     inkscape:window-width="1920"
     inkscape:window-height="986"
     inkscape:window-x="-11"
     inkscape:window-y="-11"
     inkscape:window-maximized="1"
     inkscape:current-layer="g433">
    <inkscape:page
       x="0"
       y="0"
       id="page431"
       width="1840"
       height="1736" />
  </sodipodi:namedview>
  <g
     id="g433"
     inkscape:groupmode="layer"
     inkscape:label="Page 1"
     transform="matrix(1.3333333,0,0,-1.3333333,0,1736)">
    <path
       d="m 596.51,696.47 c 17.81,14.01 35.38,26.84 52.73,38.79 213.08,135.18 483.54,154.63 716.75,44.59 l 0.01,-0.03 c -131.58,1.2 -259.64,-27.91 -370.51,-83.64 l -0.02,0.02 -0.05,-0.03 -0.05,-0.02 c -0.68,-0.36 -1.36,-0.71 -2.03,-1.06 l -0.05,-0.03 -0.05,-0.03 -0.05,-0.03 -0.05,-0.03 -0.05,-0.02 -0.05,-0.02 -0.32,-0.17 -0.05,-0.03 -0.05,-0.02 -0.05,-0.03 -0.1,-0.06 -0.06,-0.02 -0.05,-0.03 -0.05,-0.03 -0.05,-0.02 -0.05,-0.03 -0.06,-0.03 c -4.7,-2.39 -9.36,-4.82 -13.99,-7.31 l -0.22,-0.12 C 842.31,614.94 752.1,514.02 693.01,403.34 545.01,325.02 426.68,192.67 369.06,26.06 c -65.75,211.3 -19.8,425.38 -3.22,695.11 17.79,151.6 -30.26,306.27 -117.43,430.26 167.1,-83.35 279.33,-245.29 300.41,-428.54 2.02,-20.15 3.27,-41.22 3.61,-63.34 14.12,12.6 28.81,24.9 44.08,36.92 z m 114.2,334.95 c 56.92,-29.59 79.07,-99.7 49.49,-156.62 -29.59,-56.91 -99.71,-79.06 -156.62,-49.48 -56.91,29.58 -79.07,99.69 -49.48,156.61 29.58,56.91 99.7,79.07 156.61,49.49 z"
       style="fill:#000000;fill-opacity:1;fill-rule:evenodd;stroke:none"
       id="path435" />
    <path
       d="M 1052.63,1115.37 C 1181.27,1012.47 1256.02,867.16 1272.89,715.43 1289.76,563.69 1248.74,405.51 1145.85,276.88 1053.64,161.6 927.37,89.61 792.94,63.76 l -4,-4.19 -5.98,2.35 C 770.67,59.77 758.32,58 745.91,56.62 594.17,39.75 436,80.76 307.36,183.66 178.73,286.55 103.97,431.86 87.1,583.6 c -16.87,151.73 24.14,309.91 127.04,438.54 102.9,128.64 248.2,203.39 399.94,220.27 151.74,16.86 309.92,-24.16 438.55,-127.04 z m -160.13,55.89 8.14,-26.04 c 2.52,-8.05 6.54,-14.37 12.74,-20.07 l 156.81,-143.98 c 7.14,-6.55 15,-10.27 24.59,-11.62 l 54.02,-7.61 c -31.39,47.07 -70.45,90.18 -116.99,127.4 -43.39,34.71 -90.35,61.96 -139.31,81.92 z m -119.18,-178 40.95,-117.57 c 5.61,-16.14 18.59,-27.15 35.43,-30.07 l 122.13,-21.2 c 22.63,-3.93 44.36,9.18 51.43,31.03 l 21.81,67.32 c 5.65,17.45 0.9,35.48 -12.6,47.88 l -119.8,109.99 c -15.12,13.88 -36.68,16.13 -54.34,5.67 l -65.09,-38.56 c -18.95,-11.23 -27.16,-33.69 -19.92,-54.49 z m -284.7,25.35 -99.42,-122.19 c -10.78,-13.24 -13.35,-30.06 -7.02,-45.92 l 55.55,-139.03 c 6.61,-16.55 21.06,-27.23 38.83,-28.67 L 645.74,669 c 16.64,-1.36 31.61,5.66 41.21,19.33 l 91.72,130.55 c 8.75,12.46 10.79,27.03 5.78,41.41 l -45.83,131.6 c -6.13,17.61 -21.24,29.23 -39.84,30.63 l -171.19,12.86 c -15.42,1.16 -29.21,-4.77 -38.97,-16.77 z m -239.2,-136.1 76.75,9.35 c 12.23,1.49 22.22,7.02 30,16.57 l 104.33,128.21 c 10.71,13.16 13.31,29.81 7.14,45.61 l -10.94,27.94 c -5.08,13 -14.65,22.16 -27.86,26.67 -13.21,4.51 -26.37,3.12 -38.35,-4.05 -56.02,-33.55 -107.13,-77.49 -150.32,-131.49 -12.61,-15.76 -24.23,-31.99 -34.88,-48.62 -9.79,-15.3 -9.87,-33.71 -0.2,-49.09 9.67,-15.38 26.3,-23.29 44.33,-21.1 z m -120.7,-296.33 80.43,-95.03 c 8.96,-10.58 20.85,-16.14 34.7,-16.22 L 319,474.5 c 20,-0.12 37.07,11.99 43.58,30.9 l 50.79,147.48 c 3.72,10.81 3.47,21.3 -0.77,31.92 l -57.06,142.82 c -7.81,19.57 -27.17,31.03 -48.09,28.48 L 177.73,840.3 c -18.59,-2.27 -33.19,-14.67 -38.44,-32.63 -18.61,-63.69 -25.61,-129.72 -21.33,-194.89 0.67,-10.21 4.14,-18.79 10.76,-26.6 z m 79.38,-244.41 -8.01,95.43 c -0.84,9.9 -4.27,18.18 -10.69,25.77 l -60.85,71.88 c 14.1,-68 40.76,-133.62 79.55,-193.08 z m 198.86,100.87 115.21,-98.16 c 16.28,-13.87 39.21,-14.79 56.55,-2.26 l 113.84,82.23 c 15.72,11.37 22.44,30.28 17.42,49.02 L 675.33,602.7 c -5.1,19.05 -20.87,32.2 -40.53,33.8 l -151.13,12.33 c -21.15,1.72 -40.14,-10.69 -47.05,-30.75 L 393.35,492.45 c -6.26,-18.19 -1.03,-37.33 13.61,-49.81 z m 635.85,342.82 45.74,-184.31 c 3.86,-15.57 14.48,-27.14 29.66,-32.32 l 61.17,-20.89 c 13.59,-4.65 27.21,-3.03 39.35,4.65 12.13,7.7 19.4,19.32 21,33.59 4.69,41.82 4.67,83.95 0.05,125.57 -7.39,66.42 -26.53,131.53 -57.03,191.95 -6.97,13.82 -19.18,22.57 -34.51,24.73 l -25.37,3.57 c -22.24,3.13 -43.07,-9.89 -49.99,-31.25 l -29.19,-90.14 c -2.76,-8.5 -3.04,-16.47 -0.88,-25.15 z M 778.15,444.58 907.75,417.37 c 17.21,-3.61 33.86,2.27 44.95,15.91 l 95.34,117.13 c 9.4,11.54 12.53,25.51 8.94,39.96 l -40.92,164.87 c -4.48,18.02 -18.34,30.93 -36.64,34.1 l -132.58,23.02 c -17.89,3.11 -34.89,-3.95 -45.33,-18.81 L 710.38,663.84 c -8.08,-11.49 -10.41,-24.64 -6.77,-38.21 l 39.7,-148.07 c 4.58,-17.1 17.52,-29.33 34.84,-32.98 z m 183.68,-75.94 11.01,-77.57 c 1.8,-12.68 7.95,-22.93 18.26,-30.5 l 23.97,-17.59 c 18.26,-13.39 43.06,-11.6 59.22,4.27 15.98,15.7 31.19,32.52 45.54,50.44 38.55,48.2 67.9,100.8 88.28,155.65 4.47,12.03 3.95,24.01 -1.55,35.6 -5.5,11.6 -14.45,19.58 -26.59,23.72 l -63.58,21.72 c -18.49,6.32 -38.01,0.73 -50.35,-14.43 L 971.66,404.01 c -8.36,-10.27 -11.68,-22.26 -9.83,-35.37 z M 570.42,265.1 l 8.8,-62.49 c 2.36,-16.81 12.82,-30.06 28.63,-36.26 l 143.77,-56.44 c 17.68,-6.94 36.75,-2.73 49.87,11 l 125.62,131.44 c 10.04,10.5 14.28,23.72 12.24,38.1 l -8.11,57.17 c -2.77,19.45 -16.73,34.36 -35.95,38.4 l -134.51,28.25 c -13.1,2.75 -25.41,0.13 -36.25,-7.7 L 588.96,308.64 C 574.83,298.43 567.99,282.37 570.42,265.1 Z m -26.92,-47.26 -7.95,56.47 c -1.63,11.54 -6.79,20.94 -15.66,28.49 L 370.31,430.25 c -8.55,7.29 -18.2,10.88 -29.44,10.94 l -57.69,0.34 c -13.34,0.07 -24.85,-4.92 -33.91,-14.71 -9.06,-9.79 -13.14,-21.66 -12.02,-34.95 l 7.27,-86.55 c 0.86,-10.16 4.46,-18.66 11.18,-26.34 21.69,-24.78 45.86,-48 72.48,-69.3 26.1,-20.87 53.49,-39.04 81.82,-54.55 10.43,-5.71 21.31,-7.15 32.87,-4.33 l 66.12,16.14 c 22.96,5.61 37.8,27.49 34.51,50.9 z M 717.64,87.54 c -45.83,17.97 -91.65,35.96 -137.46,53.97 -9.18,3.6 -18.05,4.2 -27.63,1.87 L 475.5,124.57 C 553.44,94.18 636.2,82.06 717.64,87.54 Z M 962.05,240.69 835.3,108.07 c 43.71,12.51 86.1,30.33 126.08,53.37 13.82,7.96 21.99,21.24 22.87,37.17 0.88,15.93 -5.78,30.03 -18.64,39.47 z m -476.5,886.83 11.93,-30.49 c 6.57,-16.8 21.25,-27.65 39.24,-29 l 185.77,-13.95 c 9.77,-0.74 18.35,1.28 26.79,6.27 l 120.67,71.49 -9.54,30.52 c -4.8,15.35 -16.14,26.29 -31.66,30.52 -69.12,18.89 -140.78,24.22 -210.99,16.41 -34.83,-3.87 -69.31,-10.97 -102.94,-21.26 -12.65,-3.87 -22.08,-11.96 -27.84,-23.87 -5.77,-11.9 -6.25,-24.32 -1.43,-36.64 z"
       style="fill:#000000;fill-opacity:1;fill-rule:evenodd;stroke:none"
       id="path437" />
    <path
       d="m 208.1,341.77 -8.01,95.43 c -0.51,6.06 -2,11.52 -4.55,16.58 -3.42,2.34 -6.57,5.19 -9.43,8.57 l -56.28,66.49 c 5.89,-26.92 13.75,-53.45 23.57,-79.36 l 12.96,-15.31 c 6.42,-7.59 9.85,-15.87 10.69,-25.77 l 1.28,-15.21 c 8.96,-17.57 18.89,-34.74 29.77,-51.42 z"
       style="fill:#af83f8;fill-opacity:1;fill-rule:nonzero;stroke:none"
       id="path439" />
    <path
       d="m 260.14,412.73 57.69,-0.34 c 11.24,-0.06 20.89,-3.65 29.45,-10.94 L 496.86,274 c 8.86,-7.55 14.03,-16.95 15.65,-28.49 l 7.95,-56.47 c 0.88,-6.27 0.46,-12.42 -1.06,-18.19 16.86,8.78 26.86,27.35 24.1,46.99 l -7.95,56.47 c -1.63,11.54 -6.79,20.94 -15.66,28.49 l -4.55,3.88 c -5.78,1.81 -11.3,4.82 -16.21,9 l -115.21,98.16 c -4.94,4.22 -8.82,9.2 -11.53,14.64 l -2.08,1.77 c -8.55,7.29 -18.2,10.88 -29.44,10.94 l -57.69,0.34 c -13.34,0.07 -24.85,-4.92 -33.91,-14.71 -5.31,-5.74 -8.91,-12.19 -10.75,-19.22 6.48,3.44 13.73,5.18 21.62,5.13 z"
       style="fill:#af83f8;fill-opacity:1;fill-rule:nonzero;stroke:none"
       id="path441" />
    <path
       d="M 552.55,143.38 475.5,124.57 c 12.93,-5.05 25.98,-9.59 39.15,-13.62 l 14.86,3.63 c 9.59,2.33 18.45,1.73 27.63,-1.88 19.29,-7.58 38.58,-15.15 57.88,-22.73 32.58,-3.76 65.36,-4.65 97.95,-2.73 l -128.16,50.31 c -3.97,1.55 -7.6,3.56 -10.85,5.95 -7.03,1.73 -14,1.68 -21.41,-0.12 z"
       style="fill:#af83f8;fill-opacity:1;fill-rule:nonzero;stroke:none"
       id="path443" />
    <path
       d="m 737.74,385.47 134.51,-28.25 c 19.23,-4.04 33.18,-18.95 35.95,-38.4 l 8.12,-57.17 c 1.17,-8.25 0.27,-16.12 -2.61,-23.32 l 13.4,14.02 c 10.04,10.5 14.28,23.72 12.24,38.1 l -8.11,57.17 c -2.77,19.45 -16.73,34.36 -35.95,38.4 l -134.51,28.25 c -13.1,2.75 -25.41,0.13 -36.25,-7.7 L 588.96,308.64 c -8.8,-6.36 -14.77,-14.99 -17.43,-24.76 l 129.96,93.89 c 10.84,7.83 23.15,10.45 36.25,7.7 z"
       style="fill:#af83f8;fill-opacity:1;fill-rule:nonzero;stroke:none"
       id="path445" />
    <path
       d="M 709.98,473.47 675.33,602.7 c -5.1,19.05 -20.87,32.2 -40.53,33.8 l -151.13,12.33 c -21.15,1.72 -40.14,-10.69 -47.05,-30.75 l -1.04,-3.03 c 7.45,3.88 16.05,5.71 25.05,4.98 L 611.77,607.7 c 19.65,-1.6 35.42,-14.75 40.53,-33.8 l 34.65,-129.23 c 2.21,-8.27 2.14,-16.58 0.01,-24.25 l 5.6,4.03 c 15.72,11.37 22.44,30.28 17.42,49.02 z"
       style="fill:#af83f8;fill-opacity:1;fill-rule:nonzero;stroke:none"
       id="path447" />
    <path
       d="m 412.6,684.8 -57.06,142.82 c -7.81,19.57 -27.17,31.03 -48.09,28.48 L 177.73,840.3 c -18.59,-2.27 -33.19,-14.67 -38.44,-32.63 -0.09,-0.31 -0.18,-0.61 -0.27,-0.91 4.76,2.43 10.03,4.05 15.67,4.74 l 129.72,15.8 c 20.92,2.55 40.28,-8.91 48.1,-28.48 L 389.56,656 c 4.25,-10.63 4.5,-21.11 0.77,-31.93 L 340.59,479.6 c 10.1,5.24 18.02,14.25 21.99,25.8 l 50.79,147.48 c 3.72,10.81 3.47,21.3 -0.77,31.92 z"
       style="fill:#af83f8;fill-opacity:1;fill-rule:nonzero;stroke:none"
       id="path449" />
    <path
       d="m 433.67,1081.39 10.93,-27.94 c 5.49,-14.05 4.04,-28.77 -3.88,-41.12 l 19.78,24.31 c 10.71,13.16 13.31,29.81 7.14,45.61 l -10.94,27.94 c -5.08,13 -14.65,22.16 -27.86,26.67 -13.21,4.51 -26.37,3.12 -38.35,-4.05 -56.02,-33.55 -107.13,-77.49 -150.32,-131.49 -3.85,-4.81 -7.62,-9.67 -11.29,-14.58 40.6,47.54 87.55,86.71 138.57,117.26 11.98,7.18 25.15,8.56 38.36,4.06 13.21,-4.52 22.78,-13.67 27.86,-26.67 z"
       style="fill:#af83f8;fill-opacity:1;fill-rule:nonzero;stroke:none"
       id="path451" />
    <path
       d="m 698.78,1022.52 -171.19,12.86 c -15.42,1.16 -29.21,-4.77 -38.97,-16.77 L 389.2,896.42 c -1.18,-1.45 -2.26,-2.94 -3.25,-4.48 l 79.63,97.87 c 9.76,12 23.55,17.93 38.98,16.77 l 171.18,-12.86 c 18.6,-1.4 33.7,-13.02 39.84,-30.63 l 45.83,-131.6 c 5.01,-14.38 2.97,-28.96 -5.78,-41.41 L 676.61,677.61 c 3.89,2.9 7.37,6.5 10.34,10.72 l 91.72,130.55 c 8.75,12.46 10.79,27.03 5.78,41.41 l -45.83,131.6 c -6.13,17.61 -21.24,29.23 -39.84,30.63 z"
       style="fill:#af83f8;fill-opacity:1;fill-rule:nonzero;stroke:none"
       id="path453" />
    <path
       d="m 979.42,789.34 -132.58,23.02 c -17.89,3.11 -34.89,-3.95 -45.33,-18.81 l -12.73,-18.11 c 9.82,7.35 22.19,10.35 35.02,8.12 l 132.58,-23.02 c 18.3,-3.17 32.16,-16.08 36.64,-34.1 l 40.93,-164.87 c 3.12,-12.59 1.14,-24.82 -5.63,-35.4 l 19.72,24.24 c 9.4,11.54 12.53,25.51 8.94,39.96 l -40.92,164.87 c -4.48,18.02 -18.34,30.93 -36.64,34.1 z"
       style="fill:#af83f8;fill-opacity:1;fill-rule:nonzero;stroke:none"
       id="path455" />
    <path
       d="m 1156.35,519.13 -51.77,17.68 c -14.63,1.09 -28.81,-4.91 -38.54,-16.86 L 971.66,404.01 c -1.21,-1.5 -2.32,-3.03 -3.33,-4.6 l 74.68,91.74 c 12.34,15.16 31.84,20.75 50.35,14.43 l 63.57,-21.72 c 12.14,-4.14 21.09,-12.12 26.59,-23.72 5.5,-11.6 6.02,-23.57 1.55,-35.6 -18.34,-49.36 -43.95,-96.9 -76.99,-141.06 3.97,4.66 7.89,9.4 11.75,14.21 38.55,48.2 67.9,100.8 88.28,155.65 4.47,12.03 3.95,24.01 -1.55,35.6 -5.5,11.6 -14.45,19.58 -26.59,23.72 l -11.69,4 c -3.96,0.29 -7.94,1.11 -11.93,2.47 z"
       style="fill:#af83f8;fill-opacity:1;fill-rule:nonzero;stroke:none"
       id="path457" />
    <path
       d="m 984.25,198.61 c 0.52,9.4 -1.59,18.17 -6.05,25.73 l -10.14,7.43 c -2.92,2.15 -5.51,4.51 -7.76,7.08 l -125,-130.78 c 2.08,0.6 4.16,1.2 6.23,1.82 l 97.49,102 3.55,-2.61 c 12.87,-9.44 19.52,-23.54 18.64,-39.47 -0.17,-3.21 -0.64,-6.3 -1.4,-9.27 0.52,0.3 1.04,0.6 1.57,0.9 13.82,7.96 21.99,21.24 22.87,37.17 z"
       style="fill:#af83f8;fill-opacity:1;fill-rule:nonzero;stroke:none"
       id="path459" />
    <path
       d="m 1216.74,682.95 c 4.63,-41.62 4.65,-83.75 -0.05,-125.57 -0.26,-2.3 -0.66,-4.52 -1.21,-6.68 1.09,0.58 2.18,1.21 3.25,1.89 12.13,7.7 19.4,19.32 21,33.59 4.69,41.82 4.67,83.95 0.05,125.57 -7.39,66.42 -26.53,131.53 -57.03,191.95 -6.97,13.82 -19.18,22.57 -34.51,24.73 l -25.37,3.57 c -22.24,3.13 -43.07,-9.89 -49.99,-31.25 l -0.72,-2.24 c 8.22,4.29 17.81,6.08 27.67,4.69 l 25.38,-3.57 c 15.32,-2.17 27.53,-10.91 34.5,-24.73 30.5,-60.42 49.65,-125.53 57.03,-191.95 z"
       style="fill:#af83f8;fill-opacity:1;fill-rule:nonzero;stroke:none"
       id="path461" />
    <path
       d="m 889.63,1051.84 119.8,-109.99 c 13.51,-12.4 18.25,-30.43 12.6,-47.88 l -21.07,-65.06 c 10.28,5.37 18.45,14.67 22.3,26.54 l 21.81,67.32 c 3.68,11.36 2.95,22.96 -1.73,33.1 l -146.25,134.28 c -12.51,4.54 -26.57,3.38 -38.76,-3.84 l -65.09,-38.56 c -10.76,-6.37 -18.05,-16.36 -21.03,-27.61 l 63.08,37.37 c 17.66,10.46 39.23,8.21 54.34,-5.67 z"
       style="fill:#af83f8;fill-opacity:1;fill-rule:nonzero;stroke:none"
       id="path463" />
    <path
       d="m 842.92,1115.82 27.03,16.02 -9.54,30.52 c -4.8,15.35 -16.14,26.29 -31.66,30.52 -69.12,18.89 -140.78,24.22 -210.99,16.41 -34.83,-3.87 -69.31,-10.97 -102.94,-21.26 -12.65,-3.87 -22.08,-11.96 -27.84,-23.87 -1.3,-2.67 -2.33,-5.38 -3.09,-8.1 2.47,1.26 5.1,2.31 7.9,3.17 33.62,10.29 68.1,17.39 102.94,21.26 70.2,7.81 141.86,2.48 210.98,-16.41 15.52,-4.23 26.86,-15.17 31.66,-30.52 z"
       style="fill:#af83f8;fill-opacity:1;fill-rule:nonzero;stroke:none"
       id="path465" />
    <path
       d="m 1008.77,1060.53 c 34.5,-27.59 64.89,-58.42 91.09,-91.7 l 48.94,-6.89 c -31.39,47.07 -70.45,90.18 -116.99,127.4 -43.39,34.71 -90.35,61.96 -139.31,81.92 l 8.14,-26.04 c 2.52,-8.05 6.54,-14.37 12.74,-20.07 l 7.19,-6.6 c 30.61,-16.25 60.15,-35.57 88.2,-58.02 z"
       style="fill:#af83f8;fill-opacity:1;fill-rule:nonzero;stroke:none"
       id="path467" />
  </g>
</svg>
